<svg width="30" height="30" viewBox="0 0 30 30" fill="none" xmlns="http://www.w3.org/2000/svg">
<path d="M16.0714 9.25205C16.5354 8.47707 17.2698 7.36792 18.1974 6.30365H18.1984C18.984 5.40038 20.5223 4.24108 20.5223 4.24108C20.7536 4.06634 20.7288 3.82297 20.4659 3.7005L18.6065 2.83155C18.3436 2.70855 17.9862 2.79829 17.812 3.03005C17.812 3.03005 16.4367 5.00286 14.8181 9.20243C9.81338 6.93873 5.05624 10.1094 5.05624 15.6229C5.05624 21.3819 9.48712 30.13 15.4791 27.4894C21.7899 30.2203 25.9051 21.3825 25.9051 15.6229C25.9051 10.0619 21.6289 6.80147 16.0714 9.25205Z" fill="#F8644A"/>
<path d="M14.9506 7.38691C15.2399 7.36263 15.4954 7.10659 15.5186 6.81782C15.5186 6.81782 15.7044 4.56573 14.1349 2.99466C12.5606 1.42306 10.3127 1.61047 10.3127 1.61047C10.0234 1.63475 9.76791 1.89079 9.74416 2.17956C9.74416 2.17956 9.55516 4.4327 11.1268 6.0043C12.6974 7.57432 14.9506 7.38691 14.9506 7.38691Z" fill="#F8644A"/>
</svg>
