<svg width="30" height="30" viewBox="0 0 30 30" fill="none" xmlns="http://www.w3.org/2000/svg">
<path d="M23.7526 11.0406C21.492 11.9826 19.1364 12.5781 16.7227 12.8204L17.8606 10.8495L21.7407 11.0825C22.1717 11.1083 22.5421 10.7799 22.568 10.3489C22.5938 9.91796 22.2654 9.5476 21.8344 9.5217L18.7346 9.33563L19.4241 8.14143L23.3043 8.37435C23.7353 8.4002 24.1057 8.0718 24.1315 7.64082C24.1574 7.20985 23.829 6.83949 23.398 6.81359L20.2982 6.62752L21.1642 5.12758C22.0277 3.63187 23.9402 3.11943 25.4359 3.98294C26.9316 4.84651 27.4441 6.75902 26.5805 8.25474L25.3584 10.3715L23.7526 11.0406Z" fill="#AE80FF"/>
<path d="M14.2309 12.945C13.1935 12.945 12.1643 12.8809 11.1461 12.7537C11.1187 12.5608 11.1037 12.3637 11.1037 12.1632C11.1037 9.86041 12.9705 7.99365 15.2732 7.99365C16.0401 7.99365 16.7581 8.20161 17.3754 8.56285L14.8498 12.9374C14.6438 12.9424 14.4375 12.945 14.2309 12.945Z" fill="#AE80FF"/>
<path d="M10.092 9.7103C9.51429 8.18259 9.40848 7.03299 9.40697 7.01538C9.37033 6.58518 8.99179 6.26715 8.56176 6.30259C8.13156 6.33918 7.81244 6.71762 7.84903 7.14781C7.85856 7.26008 8.07569 9.61967 9.54123 12.2166C9.54212 12.3119 9.54603 12.4066 9.55155 12.5008C7.89974 12.183 6.28139 11.6958 4.70905 11.0406L3.76804 10.6486C3.89167 10.3455 4.06408 10.063 4.28011 9.81381C3.21881 9.34323 2.504 8.28646 2.504 7.08162C2.504 5.42913 3.84836 4.08477 5.50085 4.08477C5.7627 4.08477 6.02188 4.1199 6.2756 4.18947C6.62996 2.91276 7.79107 2 9.14919 2C10.4719 2 11.6171 2.86231 12.0029 4.09842C12.0951 4.0893 12.1859 4.08477 12.2763 4.08477C13.7053 4.08477 14.9032 5.09046 15.2012 6.43107C12.9477 6.45895 11.0033 7.79341 10.092 9.7103Z" fill="#AE80FF"/>
<path d="M4.10767 12.4841C7.33192 13.8276 10.7379 14.5087 14.2308 14.5087C17.7238 14.5087 21.1297 13.8276 24.354 12.4841C24.9024 12.2556 25.4953 12.6982 25.432 13.289C25.1715 15.7199 24.2288 24.6131 24.0179 26.589C23.8903 27.7839 22.8877 28.6851 21.6858 28.6851H6.77591C5.57394 28.6851 4.57137 27.7839 4.44379 26.5889C4.23286 24.6131 3.29013 15.7198 3.02969 13.289C2.96636 12.6982 3.55922 12.2556 4.10767 12.4841ZM8.23713 23.4732C8.23713 23.905 8.58716 24.255 9.01891 24.255H19.4427C19.8745 24.255 20.2245 23.905 20.2245 23.4732V19.3037C20.2245 18.8719 19.8745 18.5219 19.4427 18.5219H9.01891C8.58716 18.5219 8.23713 18.8719 8.23713 19.3037V23.4732Z" fill="#AE80FF"/>
<path d="M18.6609 20.0854H9.80066V22.6914H18.6609V20.0854Z" fill="#AE80FF"/>
</svg>
