<svg width="30" height="30" viewBox="0 0 30 30" fill="none" xmlns="http://www.w3.org/2000/svg">
<path d="M20.978 2.76172C20.978 2.34105 20.6369 2 20.2163 2H17.1694C16.7487 2 16.4077 2.34105 16.4077 2.76172V4.08203H20.978V2.76172Z" fill="#0CD4DC"/>
<path d="M7.54851 24.0029C6.87779 23.6072 6.25876 23.1276 5.70865 22.5775C5.66848 22.5374 5.62928 22.4964 5.58998 22.4556C4.68297 22.9074 3.86336 23.5388 3.18498 24.3251C2.93838 24.611 2.93838 25.0344 3.18498 25.3203C4.65408 27.0232 6.78547 27.9999 9.03254 27.9999C9.7028 27.9999 10.3625 27.9124 10.9977 27.7452C10.2003 26.9039 9.54909 25.9405 9.0656 24.8979L7.54851 24.0029Z" fill="#0CD4DC"/>
<path d="M8.32266 22.6909C8.16291 21.9578 8.07952 21.2035 8.07952 20.4393C8.07952 18.7098 8.5006 17.0418 9.26877 15.5588C8.03875 14.9447 6.65298 14.6637 5.24948 14.7671C4.87294 14.7948 4.57354 15.0942 4.54581 15.4708C4.38052 17.7138 5.19703 19.9115 6.78592 21.5004C7.25072 21.9652 7.76778 22.3635 8.32266 22.6909Z" fill="#0CD4DC"/>
<path d="M23.0645 12.468C21.8432 11.7969 21.1426 10.6127 21.1426 9.21921V7.1256C21.5337 7.0934 21.8412 6.76642 21.8412 6.36708C21.8412 5.96702 21.5325 5.63964 21.1405 5.60846C21.1403 5.60643 16.2451 5.60643 16.245 5.60846C15.853 5.63964 15.5443 5.96702 15.5443 6.36708C15.5443 6.76642 15.8518 7.0934 16.2429 7.1256V9.21921C16.2429 10.6127 15.5424 11.7969 14.321 12.468C12.3218 13.5666 10.843 15.3519 10.1129 17.4374H27.2726C26.5425 15.3518 25.0637 13.5665 23.0645 12.468Z" fill="#0CD4DC"/>
<path d="M27.661 18.9609H9.72455C9.64477 19.4451 9.60298 19.9391 9.60298 20.4393C9.60298 23.3819 11.0381 26.1558 13.4418 27.8597C13.5706 27.9509 13.7245 28 13.8823 28H23.5032C23.6611 28 23.815 27.951 23.9437 27.8597C26.3475 26.1558 27.7826 23.3819 27.7826 20.4393C27.7827 19.9391 27.7408 19.4451 27.661 18.9609Z" fill="#0CD4DC"/>
</svg>
