<svg width="30" height="30" viewBox="0 0 30 30" fill="none" xmlns="http://www.w3.org/2000/svg">
<path d="M7.00657 14.8811C7.00657 14.1537 7.22226 13.4542 7.62313 12.8619C7.49142 12.4371 7.42336 11.9919 7.42336 11.5507C7.42336 9.64817 8.62334 7.99072 10.363 7.36846C10.5181 5.94993 11.4286 4.72925 12.7117 4.14497C12.0522 3.07842 11.0114 2.45306 10.0518 2.60852C9.35836 2.72114 8.78378 3.19192 8.44611 3.90251C7.83838 3.6234 7.20634 3.57702 6.6521 3.77179C6.05233 3.98289 5.58648 4.43424 5.30493 5.07682C4.93146 5.92784 4.93102 7.0231 5.29212 8.06447C4.80549 8.39835 4.44174 8.889 4.22915 9.5042C3.87158 10.5372 3.99092 11.7835 4.55622 12.9251C4.61809 13.0496 4.68572 13.1733 4.75953 13.2947C4.22871 13.6397 3.83136 14.1511 3.61833 14.7751C3.27977 15.7653 3.4296 16.932 4.02937 17.9752C4.30473 18.4544 4.66936 18.8885 5.09411 19.2453C4.95223 19.8389 5.05963 20.4912 5.40526 21.0816C5.88835 21.9053 6.75862 22.464 7.68855 22.558C8.93405 24.8969 10.4394 26.0902 12.5923 27.1241C10.0346 24.1029 8.61229 21.6006 8.53229 17.8272C7.59087 17.1555 7.00657 16.0519 7.00657 14.8811Z" fill="#28B446"/>
<path d="M26.6864 11.4312C26.7217 9.71152 25.7109 8.16448 24.1445 7.49584C23.916 6.02829 22.7324 4.88137 21.2615 4.68705C21.2482 4.54087 21.2204 4.39513 21.1784 4.25115C20.9189 3.36612 20.138 2.69969 19.2359 2.59282C18.6458 2.5226 18.088 2.67054 17.627 2.99426C17.216 2.72266 16.7373 2.57603 16.2467 2.57603C14.9831 2.57603 13.933 3.50877 13.75 4.72149C12.3051 5.01297 11.2218 6.29945 11.2218 7.80454C11.2218 7.88536 11.2254 7.96618 11.2316 8.04833C9.55644 8.34952 8.30563 9.80382 8.30563 11.5514C8.30563 12.0566 8.4148 12.5574 8.6243 13.018C8.15359 13.5211 7.88928 14.1831 7.88928 14.8817C7.88928 15.9258 8.48949 16.8726 9.41191 17.3284C9.37125 21.3309 10.8302 23.7608 13.6766 27.0351L13.837 27.2175L13.8662 27.2506C14.2976 27.7342 14.9186 28 15.6156 28C15.7362 28 15.8551 27.9899 15.9723 27.9749L15.8211 27.6816C14.8713 25.4244 14.2883 23.4203 13.963 21.6387C12.7374 21.2616 12.2075 20.2829 12.184 20.2379C12.07 20.0224 12.1535 19.7547 12.3692 19.6412C12.5836 19.5277 12.8501 19.6099 12.9655 19.8241C12.9818 19.8545 13.239 20.3068 13.8017 20.615C13.6479 19.4593 13.6032 18.4038 13.6479 17.4525C13.6426 17.4044 13.6448 17.3571 13.6558 17.3085C13.7327 15.9487 13.9811 14.7978 14.3091 13.8333C12.82 12.9461 12.6362 11.2943 12.7644 10.4928C12.8028 10.2521 13.03 10.0856 13.2704 10.1262C13.5113 10.1646 13.6753 10.3903 13.6377 10.6306C13.6267 10.7017 13.4282 12.1666 14.6339 12.9907C14.694 12.8515 14.7546 12.7133 14.8174 12.5839C15.9798 10.1867 17.6412 8.99387 18.2843 8.60037C18.2829 7.71578 18.8633 6.94733 18.8907 6.91156C19.0387 6.71768 19.3172 6.68147 19.5099 6.82897C19.7035 6.97692 19.7406 7.25383 19.593 7.44726C19.4944 7.57799 19.3008 7.90347 19.2142 8.26164C20.2321 8.14637 21.2257 8.72049 21.2761 8.75053C21.4869 8.87462 21.5563 9.14535 21.4325 9.35512C21.3499 9.49468 21.2022 9.57241 21.0515 9.57241C20.9751 9.57241 20.8982 9.55298 20.8279 9.51146C20.5198 9.33172 19.5819 8.93469 18.9393 9.24206C18.8275 9.29904 18.0752 9.70357 17.2191 10.5961C18.9724 10.4685 20.1919 10.9887 20.2533 11.0152C20.4765 11.1137 20.5782 11.3743 20.4805 11.5973C20.4076 11.7625 20.2454 11.8614 20.0752 11.8614C20.0164 11.8614 19.9563 11.8499 19.8988 11.8243C19.8657 11.8102 18.3705 11.191 16.3886 11.603C15.9917 12.1608 15.6098 12.8295 15.2934 13.6262C15.2925 13.6845 15.2806 13.7436 15.2549 13.8002C15.2381 13.8377 15.2156 13.8704 15.1908 13.9004C14.9394 14.5889 14.7365 15.3631 14.6145 16.2376C15.6138 15.6113 16.8744 15.5839 16.9464 15.5831H16.9517C17.193 15.5831 17.3897 15.7765 17.3932 16.0185C17.3968 16.2623 17.2014 16.4623 16.9579 16.4663C16.9393 16.4668 15.1206 16.5092 14.5018 17.5633C14.4585 18.6405 14.5332 19.8431 14.763 21.1812C14.7652 21.1914 14.7665 21.2015 14.7679 21.2121C15.0772 22.9959 15.6589 25.0146 16.6229 27.3062L16.8332 27.7117C17.1577 27.5483 17.437 27.3221 17.6363 27.0439C17.9691 26.5793 18.0478 26.0158 17.8569 25.4571C17.0578 23.1142 17.0825 21.3265 17.9302 20.1429C19.029 18.6082 21.3176 18.379 22.5834 18.379C23.2354 18.379 23.6831 18.4391 23.6875 18.44L24.1419 18.5018L24.1874 18.046C24.1936 17.986 24.324 16.563 23.493 15.5963C23.4449 15.5402 23.394 15.4872 23.3419 15.4364C23.5766 15.3839 23.8086 15.3092 24.0367 15.213C25.6119 14.5492 26.6523 13.0644 26.6864 11.4312Z" fill="#28B446"/>
</svg>
